<?xml version="1.0" standalone="no"?>
<!DOCTYPE svg PUBLIC "-//W3C//DTD SVG 20010904//EN"
 "http://www.w3.org/TR/2001/REC-SVG-20010904/DTD/svg10.dtd">
<svg class="nav-logo" version="1.0" xmlns="http://www.w3.org/2000/svg"
 width="4261.000000pt" height="1816.000000pt" viewBox="0 0 4261.000000 1816.000000"
 preserveAspectRatio="xMidYMid meet">

<g transform="translate(0.000000,1816.000000) scale(0.100000,-0.100000)"
fill="#000000" stroke="none">
<path d="M23976 18130 c-187 -22 -404 -73 -626 -148 -537 -182 -1041 -479
-1435 -848 -262 -245 -494 -495 -610 -657 -133 -187 -150 -222 -185 -376 -42
-184 -80 -261 -303 -611 -280 -439 -345 -582 -402 -871 -45 -232 -58 -380 -52
-619 6 -286 38 -459 122 -653 53 -123 94 -185 180 -272 143 -145 283 -189 412
-131 77 36 138 97 163 164 16 41 20 77 20 165 0 192 69 498 177 787 264 706
627 1380 1032 1918 152 201 243 309 450 535 342 372 613 568 931 673 76 25
100 28 225 28 133 1 142 0 191 -26 84 -44 132 -114 160 -235 12 -53 15 -106
12 -238 -4 -146 -13 -220 -62 -520 -68 -420 -65 -403 -77 -384 -5 7 -9 28 -10
44 -1 21 -3 24 -6 10 -21 -93 -134 -458 -223 -725 -189 -565 -440 -1209 -768
-1965 -124 -286 -276 -634 -307 -700 -20 -45 -180 -407 -320 -730 -164 -375
-448 -1074 -585 -1440 -239 -635 -359 -931 -819 -2002 -548 -1280 -710 -1682
-876 -2178 -223 -668 -336 -1202 -352 -1660 -6 -193 3 -297 38 -432 41 -161
152 -344 266 -439 306 -258 700 -284 946 -63 139 124 227 311 377 798 72 234
363 1022 523 1416 274 675 318 762 672 1335 100 162 321 520 490 795 491 797
964 1548 1112 1765 24 36 60 92 80 125 90 153 1028 1567 1293 1950 217 313
457 648 723 1007 146 196 543 709 618 798 21 25 69 83 106 130 504 638 1044
1180 1549 1556 418 311 645 417 769 359 39 -19 55 -51 55 -108 0 -84 -7 -104
-255 -732 -291 -735 -613 -1398 -1008 -2075 -66 -113 -125 -212 -132 -220 -13
-16 -155 -259 -155 -265 0 -2 -78 -140 -174 -307 -450 -786 -897 -1642 -1141
-2188 -21 -47 -60 -132 -88 -190 -74 -158 -263 -621 -384 -945 -260 -694 -480
-1502 -574 -2105 -31 -199 -34 -602 -5 -755 57 -309 186 -573 389 -799 175
-195 408 -330 532 -310 177 29 306 203 459 624 101 276 187 435 473 871 170
260 283 445 623 1029 251 430 427 726 560 940 53 85 141 236 194 334 175 319
226 394 376 551 58 61 137 146 175 190 39 43 85 95 102 114 18 20 51 61 73 91
23 30 76 103 119 161 44 58 163 227 266 375 1194 1714 1666 2280 2585 3105
323 290 578 409 761 356 59 -17 110 -61 128 -110 16 -41 13 -182 -4 -256 -9
-35 -47 -157 -85 -270 -73 -217 -88 -282 -43 -196 14 28 29 52 33 55 4 3 15
20 24 38 23 44 28 40 11 -9 -8 -23 -15 -48 -15 -55 0 -40 -273 -777 -290 -782
-6 -2 -10 -10 -10 -17 0 -8 -5 -17 -10 -20 -13 -8 -5 57 16 134 9 29 13 55 11
58 -11 11 -117 -180 -240 -431 -73 -149 -283 -574 -467 -945 -377 -758 -459
-940 -585 -1301 -43 -122 -239 -638 -270 -710 -13 -30 -45 -109 -71 -175 -73
-187 -166 -404 -439 -1025 -450 -1024 -515 -1203 -506 -1407 1 -22 6 -33 16
-33 9 0 15 -9 15 -22 0 -24 -24 -109 -39 -143 -5 -11 -14 -33 -20 -50 -7 -23
-9 -12 -5 50 l4 80 -15 -40 c-22 -56 -43 -162 -55 -282 -5 -57 -25 -158 -46
-230 -93 -331 -193 -792 -238 -1098 -55 -377 -61 -465 -61 -880 0 -422 11
-554 71 -855 141 -706 478 -1353 954 -1831 184 -185 335 -295 530 -387 227
-108 389 -145 630 -145 198 -1 340 21 577 89 348 99 643 246 926 461 127 97
492 460 575 570 120 162 174 278 175 375 0 64 -17 98 -66 129 -72 46 -266 -5
-577 -151 -294 -137 -431 -185 -670 -234 -239 -48 -327 -58 -591 -63 -418 -9
-675 36 -913 160 -267 138 -387 433 -355 879 29 411 225 1212 484 1978 161
476 500 1355 710 1840 53 124 180 425 282 670 102 245 229 550 284 678 195
458 499 1228 499 1265 0 4 -20 -8 -44 -28 l-44 -36 14 41 c26 75 267 537 620
1190 159 295 366 741 476 1024 166 432 262 781 314 1151 21 155 30 533 15 692
-47 497 -214 903 -503 1221 -203 223 -443 349 -729 383 -440 51 -922 -135
-1455 -563 -436 -349 -1006 -913 -1474 -1458 -379 -443 -962 -1209 -1260
-1655 -73 -110 -151 -224 -173 -253 -21 -30 -37 -55 -35 -58 2 -2 39 44 82
101 43 58 80 105 83 105 2 0 -34 -56 -81 -124 -48 -69 -89 -133 -93 -143 -10
-26 -303 -465 -324 -486 -11 -10 -19 -22 -19 -28 0 -13 -158 -260 -176 -275
-7 -6 -54 -76 -104 -155 -51 -79 -95 -143 -100 -142 -4 1 -7 -5 -6 -15 0 -9
-5 -17 -13 -17 -8 0 -16 -7 -18 -15 -4 -13 -3 -13 6 0 6 8 11 11 11 6 0 -10
-200 -336 -207 -336 -5 0 -14 -15 92 158 48 79 86 145 84 146 -2 2 -56 -80
-119 -182 -63 -102 -174 -278 -247 -391 -72 -113 -129 -208 -127 -210 8 -8 20
10 160 234 75 121 141 225 147 230 13 12 0 -10 -157 -268 -69 -114 -126 -212
-126 -218 0 -5 -71 -130 -158 -277 -87 -147 -205 -349 -263 -448 -112 -195
-142 -233 -128 -161 11 59 166 530 259 787 269 743 517 1322 1199 2803 341
739 418 909 543 1192 141 320 218 458 623 1115 255 414 416 735 480 955 167
576 47 1255 -315 1795 -297 441 -669 593 -1102 450 -190 -63 -466 -230 -687
-415 -311 -260 -523 -483 -1099 -1157 -87 -103 -249 -286 -360 -405 -463 -504
-851 -973 -1312 -1588 -172 -229 -266 -359 -618 -855 -113 -159 -753 -1119
-957 -1435 -92 -143 -178 -271 -191 -284 l-24 -24 6 34 c3 19 23 97 44 174 22
77 57 210 80 295 106 399 192 664 330 1020 29 74 65 171 80 215 16 44 73 202
129 352 235 635 727 2176 849 2658 118 464 164 862 133 1150 -42 397 -265
1058 -450 1335 -152 228 -372 401 -629 494 -169 61 -445 89 -646 66z m104
-3287 c-67 -253 -185 -649 -267 -898 -184 -560 -340 -948 -589 -1466 -331
-690 -595 -1281 -854 -1912 -40 -97 -75 -176 -77 -174 -11 12 523 1338 742
1842 117 268 221 534 413 1055 182 493 276 732 419 1070 103 242 202 492 224
568 7 23 14 40 16 38 3 -2 -10 -57 -27 -123z m7593 -1776 c-26 -34 -535 -567
-540 -567 -6 0 96 116 206 234 96 103 344 356 349 356 2 0 -5 -10 -15 -23z
m-623 -665 c0 -10 -90 -109 -90 -99 0 8 80 105 88 107 1 0 2 -3 2 -8z m-125
-150 l-28 -27 24 31 c13 17 26 30 28 27 3 -2 -8 -16 -24 -31z m-8644 -1899
c-12 -20 -14 -14 -5 12 4 9 9 14 11 11 3 -2 0 -13 -6 -23z m9787 -1485 c17
-17 15 -62 -4 -106 -8 -20 -31 -100 -50 -177 -107 -431 -254 -814 -576 -1500
-203 -431 -370 -807 -513 -1150 -107 -258 -266 -669 -280 -728 -4 -15 -9 -26
-12 -24 -7 8 183 648 272 912 108 323 184 511 349 858 278 587 429 953 512
1245 105 372 159 518 228 627 36 56 52 65 74 43z m-1602 -4302 c7 -30 -13 -96
-30 -96 -17 0 -36 21 -36 40 0 20 37 80 50 80 5 0 12 -11 16 -24z"/>
<path d="M4912 12420 c-349 -48 -697 -341 -1045 -878 -229 -355 -380 -578
-577 -857 -511 -724 -615 -903 -1183 -2043 -295 -590 -322 -650 -472 -1027
-148 -374 -323 -754 -361 -785 -12 -11 -14 1 -14 85 0 54 -9 152 -21 219 -16
93 -20 148 -16 241 4 107 11 147 71 379 45 177 84 301 122 395 147 360 184
483 184 612 0 99 15 169 51 240 32 64 177 261 355 481 206 256 262 365 251
491 -7 79 -43 148 -124 237 -96 105 -118 136 -216 300 -47 80 -107 171 -132
203 -57 72 -145 138 -254 190 -71 35 -94 41 -150 41 -52 1 -75 -4 -110 -24
-55 -31 -77 -66 -90 -146 -13 -85 -80 -212 -198 -379 -55 -77 -111 -160 -126
-185 -38 -66 -151 -322 -222 -505 -84 -215 -414 -1202 -464 -1390 -104 -391
-150 -730 -136 -1010 3 -77 1 -254 -5 -394 -17 -386 7 -581 99 -777 76 -161
166 -276 305 -388 278 -224 610 -369 768 -337 66 14 108 39 141 83 29 39 33
56 52 195 12 95 19 116 73 221 192 380 268 535 427 872 97 206 263 544 369
750 106 206 305 602 441 880 529 1079 851 1652 1173 2090 108 145 283 365 398
500 50 58 139 168 199 245 61 77 135 166 166 199 63 64 83 67 127 20 19 -22
22 -36 22 -108 0 -153 -62 -343 -275 -841 -72 -170 -138 -328 -145 -350 -24
-75 -128 -310 -284 -643 -239 -510 -325 -724 -391 -974 -58 -221 -68 -308 -61
-508 7 -200 5 -215 -64 -471 -68 -249 -83 -335 -83 -464 -1 -92 4 -125 27
-200 57 -189 129 -308 267 -440 157 -150 270 -209 404 -209 71 -1 88 3 146 32
123 60 234 198 399 497 45 83 115 206 155 275 92 160 111 195 300 555 322 611
449 803 712 1077 230 239 348 392 683 888 311 459 401 582 576 780 113 129
191 206 200 197 4 -3 -52 -147 -124 -319 -156 -374 -367 -898 -411 -1023 l-31
-90 25 29 26 28 -7 -28 c-4 -16 -31 -92 -59 -169 -29 -77 -67 -184 -84 -237
-18 -54 -37 -98 -42 -98 -14 0 -11 59 6 114 l15 50 -28 -27 c-68 -66 -205
-392 -357 -852 -187 -564 -224 -736 -246 -1151 -12 -218 0 -778 21 -979 43
-405 124 -707 247 -916 37 -64 232 -274 263 -284 10 -3 27 -30 40 -65 15 -40
36 -72 64 -98 87 -80 382 -207 635 -273 100 -26 127 -30 196 -25 398 29 867
394 1420 1107 65 85 198 253 294 374 288 364 548 717 980 1335 105 151 282
403 393 560 303 429 426 634 503 840 16 41 31 78 35 83 4 4 49 -13 101 -37
183 -86 369 -126 636 -133 184 -6 325 4 501 33 52 9 95 14 98 12 2 -3 -21 -51
-52 -109 -119 -222 -517 -1059 -731 -1539 -112 -251 -223 -527 -223 -557 0
-24 -77 -300 -94 -338 -8 -16 -17 -45 -21 -62 -3 -18 -11 -35 -15 -38 -5 -3
-3 16 5 42 43 141 -12 116 -85 -39 -95 -204 -277 -839 -317 -1106 -22 -147
-24 -501 -5 -612 67 -375 253 -779 451 -977 223 -223 549 -349 831 -321 78 7
91 12 177 64 106 64 246 166 265 193 16 23 70 51 98 51 18 0 19 -3 10 -21 -9
-17 -1 -14 45 15 172 111 920 683 1086 832 174 155 464 456 638 659 84 99 168
196 186 216 130 144 303 378 956 1295 1028 1443 1168 1657 1433 2184 155 308
205 428 231 559 37 180 -21 358 -122 377 -76 14 -216 -94 -378 -290 -45 -56
-325 -428 -623 -827 -544 -732 -1227 -1636 -1397 -1849 -372 -466 -997 -1278
-1039 -1350 l-18 -32 31 16 c17 9 42 21 56 26 l26 10 -17 -30 c-20 -34 -282
-279 -462 -434 -368 -314 -672 -511 -833 -538 -58 -10 -70 -9 -105 8 -53 26
-68 71 -61 180 7 95 31 196 86 355 39 112 140 360 199 489 26 58 120 309 363
975 197 537 279 727 721 1665 180 381 283 615 329 752 75 220 64 382 -34 514
-60 80 -116 126 -217 178 -216 112 -526 180 -905 200 l-100 5 130 -18 c190
-27 336 -53 331 -58 -3 -3 -44 0 -93 6 -48 6 -169 15 -268 21 -531 31 -575 36
-795 87 -213 49 -266 78 -296 160 -52 148 28 397 234 723 87 138 116 185 195
325 26 44 50 85 55 91 5 6 17 24 26 40 16 27 17 27 11 4 -4 -14 -10 -41 -15
-60 -4 -19 -20 -68 -34 -109 -32 -93 -32 -100 0 -70 62 56 186 386 188 499 1
50 -4 62 -46 126 -46 68 -147 174 -167 174 -15 0 -23 -18 -11 -25 13 -8 13
-35 0 -35 -6 0 -57 23 -114 51 -301 147 -601 109 -940 -119 -390 -262 -676
-792 -680 -1257 -1 -170 14 -239 75 -356 89 -169 111 -223 121 -289 6 -36 16
-98 24 -139 l13 -74 -82 -81 c-118 -117 -238 -253 -420 -481 -140 -174 -566
-690 -999 -1209 -73 -88 -230 -270 -348 -404 -118 -135 -311 -360 -429 -501
-331 -397 -490 -569 -646 -700 -173 -146 -278 -200 -387 -201 -60 0 -69 3 -87
26 -36 46 -46 124 -45 344 1 113 9 270 18 350 20 184 21 180 -9 140 l-25 -34
0 36 c0 49 77 313 151 523 107 297 196 513 477 1146 321 724 553 1327 671
1740 171 602 192 1119 61 1519 -151 462 -510 618 -1017 439 -259 -92 -592
-305 -775 -498 -230 -240 -1239 -1569 -1532 -2015 -82 -125 -130 -206 -123
-206 3 0 42 51 88 113 45 61 88 117 94 122 6 6 35 43 64 83 29 39 55 72 57 72
2 0 -21 -38 -51 -85 -30 -47 -55 -88 -55 -91 0 -4 -33 -59 -73 -123 -164 -259
-336 -556 -462 -796 -38 -71 -77 -143 -88 -160 l-18 -30 6 35 c13 74 251 897
367 1270 183 593 224 701 429 1142 322 693 384 889 358 1141 -21 203 -114 440
-238 604 -210 278 -510 422 -799 383z m37 -1085 c3 -253 -193 -920 -384 -1310
-106 -217 -170 -394 -315 -865 -123 -402 -165 -524 -265 -781 -163 -412 -233
-635 -280 -884 -26 -133 -30 -117 -15 50 26 284 108 650 223 995 103 309 172
474 472 1130 169 369 253 584 375 955 110 339 169 596 171 744 1 97 17 67 18
-34z m7727 -2967 c-57 -91 -140 -253 -266 -523 -67 -143 -157 -334 -200 -425
-81 -170 -326 -733 -502 -1155 -149 -356 -242 -597 -314 -810 -35 -104 -64
-185 -64 -179 0 20 78 276 139 454 76 225 153 424 281 730 56 135 128 308 160
385 94 229 185 425 315 685 68 135 142 286 163 335 112 254 224 460 284 523
18 17 33 32 35 32 1 0 -12 -24 -31 -52z m1128 -667 c-31 -67 -59 -120 -61
-118 -1 2 23 58 54 125 31 67 58 120 60 118 2 -2 -22 -58 -53 -125z m-2607
-2993 c-3 -8 -6 -5 -6 6 -1 11 2 17 5 13 3 -3 4 -12 1 -19z m-17 -120 c-7 -40
-14 -210 -17 -378 -4 -254 -3 -318 11 -385 8 -44 18 -100 20 -123 3 -24 9 -49
14 -55 14 -18 182 -402 182 -415 0 -28 221 -247 307 -305 34 -22 61 -43 58
-45 -6 -6 -141 76 -210 128 -35 28 -68 50 -73 50 -14 0 -125 193 -201 350 -75
154 -90 205 -116 405 -17 129 -19 402 -6 590 10 136 33 299 39 273 2 -9 -2
-50 -8 -90z"/>
<path d="M11884 9334 c30 -72 115 -128 226 -148 l35 -6 -36 14 c-55 21 -110
59 -179 122 l-62 58 16 -40z"/>
<path d="M12688 9123 c6 -2 18 -2 25 0 6 3 1 5 -13 5 -14 0 -19 -2 -12 -5z"/>
<path d="M12768 9113 c12 -2 32 -2 45 0 12 2 2 4 -23 4 -25 0 -35 -2 -22 -4z"/>
<path d="M18120 5193 c-200 -35 -471 -148 -634 -264 -107 -76 -289 -249 -391
-370 -222 -265 -347 -547 -347 -784 0 -200 60 -317 259 -505 341 -323 563
-385 801 -226 37 25 122 97 190 160 68 64 169 155 225 202 133 114 259 237
305 299 20 27 62 97 93 155 30 58 94 173 140 256 100 178 169 344 176 424 5
49 3 60 -16 79 -11 11 -31 21 -42 21 -20 0 -21 4 -14 48 4 26 15 83 26 127 32
137 23 202 -41 276 -37 43 -39 44 -101 45 -39 0 -99 11 -152 27 -165 50 -312
59 -477 30z"/>
</g>
</svg>
